<?xml version="1.0" standalone="no"?>
<!DOCTYPE svg PUBLIC "-//W3C//DTD SVG 20010904//EN"
 "http://www.w3.org/TR/2001/REC-SVG-20010904/DTD/svg10.dtd">
<svg version="1.0" xmlns="http://www.w3.org/2000/svg"
 width="260.000000pt" height="260.000000pt" viewBox="0 0 260.000000 260.000000"
 preserveAspectRatio="xMidYMid meet">
<metadata>
Created by potrace 1.14, written by Peter Selinger 2001-2017
</metadata>
<g transform="translate(0.000000,260.000000) scale(0.100000,-0.100000)"
fill="#000000" stroke="none">
<path d="M0 1300 l0 -1300 1300 0 1300 0 0 1300 0 1300 -1300 0 -1300 0 0
-1300z m962 531 c98 -223 178 -408 178 -413 0 -4 -55 -8 -122 -8 l-123 0 -108
273 c-60 149 -114 294 -120 321 l-13 48 -17 -58 c-10 -33 -66 -176 -125 -319
l-107 -260 -124 -3 c-114 -2 -123 -1 -118 15 3 10 78 182 167 383 89 201 169
380 177 398 l14 33 131 -3 132 -3 178 -404z m1498 -1331 l0 -120 -520 0 -520
0 0 120 0 120 520 0 520 0 0 -120z"/>
</g>
</svg>
